<svg width="75" height="23" viewBox="0 0 75 23" fill="none" xmlns="http://www.w3.org/2000/svg">
<path d="M0.2 11.18V9.66L9.22 5.32V6.7L1.66 10.42L9.22 14.16V15.54L0.2 11.18ZM17.5603 0.599999H19.1003L12.4803 21H10.9203L17.5603 0.599999ZM27.2992 8.08C27.5926 7.89333 27.9326 7.8 28.3192 7.8C28.7192 7.8 29.0526 7.94667 29.3192 8.24C29.5992 8.53333 29.7392 8.96 29.7392 9.52V16.24C29.7392 16.7867 29.6526 17.1733 29.4792 17.4C29.1592 17.8 28.6726 18 28.0192 18H20.9992V16.64H22.2592V4.36H20.9992V3H23.8992V10.22L27.2992 8.08ZM28.1392 9.16L23.8992 11.82V16.64H28.1392V9.16ZM34.4061 18C33.7261 18 33.2461 17.8467 32.9661 17.54C32.6861 17.22 32.5461 16.78 32.5461 16.22V9.78C32.5461 9.24667 32.6661 8.82 32.9061 8.5C33.1594 8.16667 33.6594 8 34.4061 8H38.1061C38.8394 8 39.3328 8.16667 39.5861 8.5C39.8394 8.82 39.9661 9.24667 39.9661 9.78V16.22C39.9661 16.78 39.8261 17.22 39.5461 17.54C39.2661 17.8467 38.7861 18 38.1061 18H34.4061ZM34.1661 16.64H38.3461V9.36H34.1661V16.64ZM51.5095 16.62V18H48.6095V15.7L45.1495 17.88C44.7362 18.0933 44.3429 18.2 43.9695 18.2C43.6095 18.2 43.3162 18.0667 43.0895 17.8C42.8762 17.5333 42.7695 17.2267 42.7695 16.88V9.88C42.7695 9.26667 42.8629 8.84667 43.0495 8.62C43.3695 8.20667 43.8762 8 44.5695 8H48.6095V4.36H47.2895V3H50.2495V16.62H51.5095ZM48.6095 9.36H44.3695V16.74L48.6095 14.1V9.36ZM62.6164 8V20.66C62.6164 21.22 62.4764 21.6467 62.1964 21.94C61.9297 22.2333 61.4564 22.38 60.7764 22.38H56.1564V19.66H57.5164V21H60.9764V15.74L57.4564 17.92C57.1497 18.1067 56.8431 18.2 56.5364 18.2C56.2297 18.2 55.9631 18.1 55.7364 17.9C55.5097 17.6867 55.3964 17.3533 55.3964 16.9V9.36H54.1164V8H57.0164V16.62L60.9964 14.12V9.36H60.0164V8H62.6164ZM65.2094 5.32L74.2294 9.66V11.18L65.2094 15.54V14.16L72.7694 10.42L65.2094 6.7V5.32Z" fill="#65CCA9"/>
</svg>
