<svg width="65" height="20" viewBox="0 0 65 20" fill="none" xmlns="http://www.w3.org/2000/svg">
<path d="M0.2 8.18V6.66L9.22 2.32V3.7L1.66 7.42L9.22 11.16V12.54L0.2 8.18ZM17.9203 5.08C18.2136 4.89333 18.5536 4.8 18.9403 4.8C19.3403 4.8 19.6736 4.94667 19.9403 5.24C20.2203 5.53333 20.3603 5.96 20.3603 6.52V13.24C20.3603 13.7867 20.2736 14.1733 20.1003 14.4C19.7803 14.8 19.2936 15 18.6403 15H11.6203V13.64H12.8803V1.36H11.6203V-1.19209e-06H14.5203V7.22L17.9203 5.08ZM18.7603 6.16L14.5203 8.82V13.64H18.7603V6.16ZM25.0272 15C24.3472 15 23.8672 14.8467 23.5872 14.54C23.3072 14.22 23.1672 13.78 23.1672 13.22V6.78C23.1672 6.24667 23.2872 5.82 23.5272 5.5C23.7805 5.16667 24.2805 5 25.0272 5H28.7272C29.4605 5 29.9539 5.16667 30.2072 5.5C30.4605 5.82 30.5872 6.24667 30.5872 6.78V13.22C30.5872 13.78 30.4472 14.22 30.1672 14.54C29.8872 14.8467 29.4072 15 28.7272 15H25.0272ZM24.7872 13.64H28.9672V6.36H24.7872V13.64ZM42.1306 13.62V15H39.2306V12.7L35.7706 14.88C35.3573 15.0933 34.964 15.2 34.5906 15.2C34.2306 15.2 33.9373 15.0667 33.7106 14.8C33.4973 14.5333 33.3906 14.2267 33.3906 13.88V6.88C33.3906 6.26667 33.484 5.84667 33.6706 5.62C33.9906 5.20667 34.4973 5 35.1906 5H39.2306V1.36H37.9106V-1.19209e-06H40.8706V13.62H42.1306ZM39.2306 6.36H34.9906V13.74L39.2306 11.1V6.36ZM53.2375 5V17.66C53.2375 18.22 53.0975 18.6467 52.8175 18.94C52.5508 19.2333 52.0775 19.38 51.3975 19.38H46.7775V16.66H48.1375V18H51.5975V12.74L48.0775 14.92C47.7708 15.1067 47.4642 15.2 47.1575 15.2C46.8508 15.2 46.5842 15.1 46.3575 14.9C46.1308 14.6867 46.0175 14.3533 46.0175 13.9V6.36H44.7375V5H47.6375V13.62L51.6175 11.12V6.36H50.6375V5H53.2375ZM55.8305 2.32L64.8505 6.66V8.18L55.8305 12.54V11.16L63.3905 7.42L55.8305 3.7V2.32Z" fill="#65CCA9"/>
</svg>
