<svg width="655" height="502" viewBox="0 0 655 502" fill="none" xmlns="http://www.w3.org/2000/svg">
<g clip-path="url(#clip0_90_307)">
<path d="M130.685 375.14C130.158 374.252 127.881 375.202 127.463 374.397C127.045 373.594 129.161 372.372 130.37 369.578C130.588 369.074 131.961 365.9 130.945 364.92C129.017 363.063 120.197 370.726 117.11 368.218C116.433 367.668 115.96 366.569 113.91 364.786C113.094 364.076 112.601 363.756 112.124 363.875C111.446 364.044 111.393 364.951 110.667 366.733C109.577 369.406 108.933 369.244 108.299 371.377C107.828 372.96 107.935 373.88 107.381 374.059C106.596 374.313 105.874 372.634 104.88 372.784C103.866 372.938 103.253 374.893 103.059 376.356C102.695 379.103 103.704 380.916 104.263 382.822C104.871 384.893 105.231 388.043 103.828 392.502L89.9404 431.631C93.0064 423.602 101.884 401.592 105.614 393.413C106.691 391.051 107.88 388.656 110.322 387.711C112.672 386.801 115.901 387.345 120.016 386.353C120.497 386.237 121.831 385.898 121.998 385.113C122.137 384.465 121.353 384.103 121.473 383.495C121.635 382.68 123.178 382.671 125.074 381.73C126.411 381.068 127.243 380.279 127.96 379.601C128.176 379.397 131.385 376.321 130.685 375.14H130.685Z" fill="#FFFAEC"/>
<path d="M76.0455 395.739C75.4581 395.741 75.2675 397.133 74.7514 397.106C74.2371 397.079 74.2473 395.688 73.225 394.289C73.0407 394.036 71.8789 392.446 71.1047 392.663C69.6373 393.073 70.8532 399.613 68.7319 400.404C68.2664 400.578 67.5907 400.493 66.1237 400.985C65.5402 401.18 65.2406 401.33 65.1614 401.599C65.049 401.98 65.4784 402.268 66.1436 403.138C67.1411 404.444 66.8761 404.714 67.7396 405.64C68.3806 406.328 68.8634 406.541 68.7914 406.865C68.6896 407.323 67.6572 407.193 67.4442 407.724C67.2268 408.266 68.0094 409.131 68.6719 409.649C69.9151 410.62 71.0958 410.648 72.1925 410.923C73.3844 411.223 75.0344 411.955 76.8181 413.93L92.0159 432.036C88.9597 428.215 80.7184 417.507 77.7804 413.316C76.9322 412.106 76.0999 410.831 76.3404 409.36C76.5719 407.944 77.77 406.517 78.4709 404.211C78.5528 403.941 78.771 403.189 78.4344 402.88C78.1562 402.625 77.7521 402.905 77.4887 402.671C77.1355 402.356 77.5757 401.596 77.6614 400.395C77.7217 399.547 77.5751 398.911 77.4491 398.364C77.4111 398.199 76.8276 395.736 76.0455 395.739V395.739Z" fill="#FFFAEC"/>
<path d="M87.7656 398.37L87.4116 395.21L87.5733 394.971C88.3217 393.863 88.7031 392.782 88.7076 391.755C88.7084 391.592 88.7008 391.428 88.6931 391.262C88.6626 390.603 88.6245 389.784 89.0517 388.829C89.2912 388.296 89.964 387.063 90.9755 387.216C91.2478 387.254 91.4538 387.379 91.6101 387.526C91.633 387.489 91.6567 387.453 91.6818 387.413C91.9969 386.932 92.2463 386.726 92.4866 386.528C92.6712 386.375 92.8619 386.218 93.1609 385.846C93.2921 385.683 93.3944 385.539 93.4806 385.419C93.7422 385.054 94.0839 384.619 94.6866 384.627C95.3304 384.658 95.6675 385.19 95.891 385.542C96.29 386.171 96.4708 386.624 96.5905 386.925C96.634 387.034 96.6836 387.158 96.7088 387.196C96.9163 387.501 98.6028 387.216 99.2383 387.112C100.665 386.874 101.9 386.668 102.409 387.568C102.774 388.212 102.503 389.064 101.58 390.167C101.293 390.51 100.987 390.771 100.715 390.975C100.94 391.109 101.141 391.315 101.223 391.639C101.415 392.405 100.757 393.172 99.2673 393.923C98.8973 394.11 98.3992 394.361 97.7012 394.481C97.3724 394.538 97.0765 394.551 96.8232 394.559C96.8179 394.705 96.7835 394.864 96.6943 395.027C96.4326 395.508 95.888 395.737 95.0672 395.682C94.164 395.634 93.4203 395.462 92.7643 395.311C92.1914 395.18 91.6979 395.068 91.3103 395.094C90.5918 395.152 90.038 395.727 89.3881 396.474L87.7656 398.37Z" fill="#FFFAEC"/>
<path d="M89.4076 379.558L86.4411 380.702L86.1684 380.606C84.9072 380.163 83.7642 380.069 82.7698 380.325C82.6117 380.365 82.4558 380.414 82.2969 380.464C81.6671 380.66 80.8843 380.905 79.8521 380.734C79.2763 380.637 77.9133 380.299 77.8043 379.282C77.7721 379.009 77.8409 378.778 77.9429 378.59C77.9017 378.577 77.8603 378.563 77.8155 378.549C77.2707 378.366 77.0082 378.177 76.7555 377.995C76.5611 377.855 76.3607 377.711 75.9248 377.516C75.7336 377.43 75.5689 377.368 75.4305 377.315C75.0114 377.154 74.5042 376.934 74.3587 376.349C74.2249 375.719 74.6544 375.257 74.9386 374.952C75.4454 374.407 75.8378 374.117 76.0982 373.925C76.1934 373.855 76.3004 373.775 76.3309 373.741C76.5734 373.463 75.8696 371.904 75.6081 371.316C75.0159 369.996 74.5034 368.853 75.245 368.133C75.7753 367.617 76.6674 367.663 77.9685 368.276C78.3735 368.467 78.7034 368.697 78.9701 368.908C79.0428 368.656 79.191 368.409 79.4831 368.248C80.1752 367.868 81.0845 368.31 82.1884 369.56C82.4638 369.871 82.8321 370.289 83.1258 370.934C83.2638 371.237 83.3521 371.52 83.4237 371.763C83.5667 371.731 83.7289 371.724 83.9095 371.769C84.4407 371.9 84.8002 372.369 84.9553 373.177C85.1386 374.063 85.1605 374.826 85.1808 375.499C85.1992 376.086 85.2167 376.592 85.34 376.96C85.5784 377.64 86.2752 378.03 87.1617 378.469L89.4076 379.558L89.4076 379.558Z" fill="#FFFAEC"/>
<path d="M87.7656 370.25L87.4116 367.09L87.5733 366.851C88.3217 365.743 88.7031 364.661 88.7076 363.635C88.7084 363.471 88.7008 363.308 88.6931 363.142C88.6626 362.483 88.6245 361.664 89.0517 360.709C89.2912 360.176 89.964 358.943 90.9755 359.096C91.2478 359.134 91.4538 359.259 91.6101 359.406C91.633 359.369 91.6567 359.332 91.6818 359.293C91.9969 358.812 92.2463 358.606 92.4866 358.408C92.6712 358.255 92.8619 358.098 93.1609 357.726C93.2921 357.563 93.3944 357.419 93.4806 357.299C93.7422 356.934 94.0839 356.499 94.6866 356.507C95.3304 356.537 95.6675 357.07 95.891 357.422C96.29 358.051 96.4708 358.504 96.5905 358.805C96.634 358.914 96.6836 359.038 96.7088 359.076C96.9163 359.381 98.6028 359.096 99.2383 358.992C100.665 358.754 101.9 358.548 102.409 359.448C102.774 360.092 102.503 360.943 101.58 362.046C101.293 362.39 100.987 362.651 100.715 362.855C100.94 362.989 101.141 363.195 101.223 363.519C101.415 364.285 100.757 365.052 99.2673 365.803C98.8973 365.99 98.3992 366.24 97.7012 366.361C97.3724 366.417 97.0765 366.431 96.8232 366.439C96.8179 366.585 96.7835 366.744 96.6943 366.907C96.4326 367.388 95.888 367.617 95.0672 367.562C94.164 367.514 93.4203 367.342 92.7643 367.191C92.1914 367.06 91.6979 366.948 91.3103 366.974C90.5918 367.032 90.038 367.607 89.3881 368.353L87.7656 370.25Z" fill="#FFFAEC"/>
<path d="M90.9981 431.58L90.336 431.165L90.1758 430.4L90.336 431.165L89.564 431.253C89.5518 431.181 89.5099 431.017 89.4466 430.759C89.101 429.346 88.0476 425.047 87.1688 418.276C86.5555 413.55 86.2084 408.691 86.1367 403.832C86.065 398.965 86.2954 395.28 86.48 392.319C86.6196 390.086 86.7889 387.959 86.9552 385.887C87.3977 380.352 87.8149 375.124 87.5044 369.336C87.4358 368.043 87.2916 365.354 85.7202 362.492C84.8087 360.832 83.5531 359.358 81.9878 358.113L82.9611 356.89C84.6889 358.266 86.078 359.898 87.0902 361.741C88.8325 364.914 88.9896 367.845 89.0652 369.253C89.381 375.144 88.9591 380.422 88.5121 386.011C88.3474 388.075 88.178 390.192 88.0392 392.417C87.8561 395.351 87.628 399.003 87.699 403.807C87.7691 408.608 88.1124 413.408 88.7173 418.075C89.5854 424.76 90.6236 428.995 90.9646 430.387C91.1461 431.13 91.1843 431.285 90.9981 431.58H90.9981Z" fill="#FFFAEC"/>
<path d="M79.1228 360.595C79.0587 360.595 78.9939 360.594 78.9283 360.589C77.5979 360.518 76.366 359.721 75.266 358.223C74.7503 357.518 74.4864 356.714 73.9601 355.111C73.8784 354.864 73.4818 353.61 73.2407 351.884C73.0828 350.757 73.1027 350.285 73.3262 349.869C73.5741 349.405 73.9753 349.082 74.4269 348.863C74.4071 348.714 74.4231 348.56 74.4879 348.403C74.7541 347.751 75.462 347.837 75.845 347.878C76.0387 347.902 76.2805 347.934 76.5414 347.921C76.9518 347.901 77.1723 347.779 77.5064 347.596C77.826 347.42 78.2234 347.202 78.8131 347.082C79.9756 346.839 80.9497 347.168 81.2709 347.277C82.9605 347.84 83.7935 349.153 84.7577 350.674C84.9499 350.979 85.6097 352.09 86.0453 353.613C86.3596 354.711 86.3153 355.199 86.2207 355.562C86.0285 356.308 85.5746 356.736 84.422 357.678C83.2183 358.666 82.6142 359.16 82.0955 359.46C80.8879 360.158 80.1297 360.595 79.1228 360.595Z" fill="#FFFAEC"/>
<path d="M575.685 376.14C575.158 375.252 572.881 376.202 572.463 375.397C572.045 374.594 574.161 373.372 575.37 370.578C575.588 370.074 576.961 366.9 575.945 365.92C574.017 364.063 565.197 371.726 562.11 369.218C561.433 368.668 560.96 367.569 558.91 365.786C558.094 365.076 557.601 364.756 557.124 364.875C556.446 365.044 556.393 365.951 555.666 367.733C554.577 370.406 553.933 370.244 553.299 372.377C552.828 373.96 552.935 374.88 552.381 375.059C551.596 375.313 550.874 373.634 549.88 373.784C548.866 373.938 548.253 375.893 548.059 377.356C547.695 380.103 548.704 381.916 549.263 383.822C549.871 385.893 550.231 389.043 548.828 393.502L534.94 432.631C538.006 424.602 546.884 402.592 550.614 394.413C551.691 392.051 552.88 389.656 555.322 388.711C557.672 387.801 560.901 388.345 565.016 387.353C565.497 387.237 566.831 386.898 566.998 386.113C567.137 385.465 566.353 385.103 566.473 384.495C566.635 383.68 568.178 383.671 570.074 382.73C571.41 382.068 572.243 381.279 572.96 380.601C573.176 380.397 576.385 377.321 575.685 376.14Z" fill="#FFFAEC"/>
<path d="M521.046 396.739C520.458 396.741 520.267 398.133 519.751 398.106C519.237 398.079 519.247 396.688 518.225 395.289C518.041 395.036 516.879 393.446 516.105 393.663C514.637 394.073 515.853 400.613 513.732 401.404C513.266 401.578 512.591 401.493 511.124 401.985C510.54 402.18 510.241 402.33 510.161 402.599C510.049 402.98 510.478 403.268 511.144 404.138C512.141 405.444 511.876 405.714 512.74 406.64C513.381 407.328 513.863 407.541 513.791 407.865C513.69 408.323 512.657 408.193 512.444 408.724C512.227 409.266 513.009 410.131 513.672 410.649C514.915 411.62 516.096 411.648 517.193 411.923C518.384 412.223 520.034 412.955 521.818 414.93L537.016 433.036C533.96 429.215 525.718 418.507 522.78 414.316C521.932 413.106 521.1 411.831 521.34 410.36C521.572 408.944 522.77 407.517 523.471 405.211C523.553 404.941 523.771 404.189 523.434 403.88C523.156 403.625 522.752 403.905 522.489 403.671C522.135 403.356 522.576 402.596 522.661 401.395C522.722 400.547 522.575 399.911 522.449 399.364C522.411 399.199 521.828 396.736 521.046 396.739V396.739Z" fill="#FFFAEC"/>
<path d="M532.766 399.37L532.412 396.21L532.573 395.971C533.322 394.863 533.703 393.782 533.708 392.755C533.708 392.592 533.701 392.428 533.693 392.262C533.663 391.603 533.624 390.784 534.052 389.829C534.291 389.296 534.964 388.063 535.975 388.216C536.248 388.254 536.454 388.379 536.61 388.526C536.633 388.489 536.657 388.453 536.682 388.413C536.997 387.932 537.246 387.726 537.487 387.528C537.671 387.375 537.862 387.218 538.161 386.846C538.292 386.683 538.394 386.539 538.481 386.419C538.742 386.054 539.084 385.619 539.687 385.627C540.33 385.658 540.668 386.19 540.891 386.542C541.29 387.171 541.471 387.624 541.591 387.925C541.634 388.034 541.684 388.158 541.709 388.196C541.916 388.501 543.603 388.216 544.238 388.112C545.666 387.874 546.9 387.668 547.409 388.568C547.774 389.212 547.503 390.064 546.58 391.167C546.292 391.51 545.987 391.771 545.715 391.975C545.94 392.109 546.141 392.315 546.223 392.639C546.415 393.405 545.757 394.172 544.267 394.923C543.897 395.11 543.399 395.361 542.701 395.481C542.372 395.538 542.076 395.551 541.823 395.559C541.818 395.705 541.784 395.864 541.694 396.027C541.433 396.508 540.888 396.737 540.067 396.682C539.164 396.634 538.42 396.462 537.764 396.311C537.191 396.18 536.698 396.068 536.31 396.094C535.592 396.152 535.038 396.727 534.388 397.474L532.766 399.37Z" fill="#FFFAEC"/>
<path d="M534.407 380.558L531.441 381.702L531.168 381.606C529.907 381.163 528.764 381.069 527.77 381.325C527.612 381.365 527.456 381.414 527.297 381.464C526.667 381.66 525.884 381.905 524.852 381.734C524.276 381.637 522.913 381.299 522.804 380.282C522.772 380.009 522.841 379.778 522.943 379.59C522.901 379.577 522.86 379.563 522.815 379.549C522.271 379.366 522.008 379.177 521.755 378.995C521.561 378.855 521.36 378.711 520.925 378.516C520.733 378.43 520.569 378.368 520.43 378.315C520.011 378.154 519.504 377.934 519.358 377.349C519.225 376.719 519.654 376.257 519.938 375.952C520.445 375.407 520.838 375.117 521.098 374.925C521.193 374.855 521.3 374.775 521.331 374.741C521.573 374.463 520.869 372.904 520.608 372.316C520.016 370.996 519.503 369.853 520.245 369.133C520.775 368.617 521.667 368.663 522.968 369.276C523.373 369.467 523.703 369.697 523.97 369.908C524.043 369.656 524.191 369.409 524.483 369.248C525.175 368.868 526.084 369.31 527.188 370.56C527.464 370.871 527.832 371.289 528.126 371.934C528.264 372.237 528.352 372.52 528.423 372.763C528.567 372.731 528.729 372.724 528.909 372.769C529.44 372.9 529.8 373.369 529.955 374.177C530.138 375.063 530.16 375.826 530.181 376.499C530.199 377.086 530.216 377.592 530.34 377.96C530.578 378.64 531.275 379.03 532.161 379.469L534.407 380.558L534.407 380.558Z" fill="#FFFAEC"/>
<path d="M532.766 371.25L532.412 368.09L532.573 367.851C533.322 366.743 533.703 365.661 533.708 364.635C533.708 364.471 533.701 364.308 533.693 364.142C533.663 363.483 533.624 362.664 534.052 361.709C534.291 361.176 534.964 359.943 535.975 360.096C536.248 360.134 536.454 360.259 536.61 360.406C536.633 360.369 536.657 360.332 536.682 360.293C536.997 359.812 537.246 359.606 537.487 359.408C537.671 359.255 537.862 359.098 538.161 358.726C538.292 358.563 538.394 358.419 538.481 358.299C538.742 357.934 539.084 357.499 539.687 357.507C540.33 357.537 540.668 358.07 540.891 358.422C541.29 359.051 541.471 359.504 541.591 359.805C541.634 359.914 541.684 360.038 541.709 360.076C541.916 360.381 543.603 360.096 544.238 359.992C545.666 359.754 546.9 359.548 547.409 360.448C547.774 361.092 547.503 361.943 546.58 363.046C546.292 363.39 545.987 363.651 545.715 363.855C545.94 363.989 546.141 364.195 546.223 364.519C546.415 365.285 545.757 366.052 544.267 366.803C543.897 366.99 543.399 367.24 542.701 367.361C542.372 367.417 542.076 367.431 541.823 367.439C541.818 367.585 541.784 367.744 541.694 367.907C541.433 368.388 540.888 368.617 540.067 368.562C539.164 368.514 538.42 368.342 537.764 368.191C537.191 368.06 536.698 367.948 536.31 367.974C535.592 368.032 535.038 368.607 534.388 369.353L532.766 371.25Z" fill="#FFFAEC"/>
<path d="M535.998 432.58L535.336 432.165L535.176 431.4L535.336 432.165L534.564 432.253C534.552 432.181 534.51 432.017 534.447 431.759C534.101 430.346 533.048 426.047 532.169 419.276C531.556 414.55 531.208 409.691 531.137 404.832C531.065 399.965 531.295 396.28 531.48 393.319C531.62 391.086 531.789 388.959 531.955 386.887C532.398 381.352 532.815 376.124 532.504 370.336C532.436 369.043 532.292 366.354 530.72 363.492C529.809 361.832 528.553 360.358 526.988 359.113L527.961 357.89C529.689 359.266 531.078 360.898 532.09 362.741C533.833 365.914 533.99 368.845 534.065 370.253C534.381 376.144 533.959 381.422 533.512 387.011C533.347 389.075 533.178 391.192 533.039 393.417C532.856 396.351 532.628 400.003 532.699 404.807C532.769 409.608 533.112 414.408 533.717 419.075C534.585 425.76 535.624 429.995 535.965 431.387C536.146 432.13 536.184 432.285 535.998 432.58Z" fill="#FFFAEC"/>
<path d="M524.123 361.595C524.059 361.595 523.994 361.594 523.928 361.589C522.598 361.518 521.366 360.721 520.266 359.223C519.75 358.518 519.486 357.714 518.96 356.111C518.878 355.864 518.482 354.61 518.241 352.884C518.083 351.757 518.103 351.285 518.326 350.869C518.574 350.405 518.975 350.082 519.427 349.863C519.407 349.714 519.423 349.56 519.488 349.403C519.754 348.751 520.462 348.837 520.845 348.878C521.039 348.902 521.281 348.934 521.541 348.921C521.952 348.901 522.172 348.779 522.506 348.596C522.826 348.42 523.223 348.202 523.813 348.082C524.976 347.839 525.95 348.168 526.271 348.277C527.96 348.84 528.793 350.153 529.758 351.674C529.95 351.979 530.61 353.09 531.045 354.613C531.36 355.711 531.315 356.199 531.221 356.562C531.028 357.308 530.575 357.736 529.422 358.678C528.218 359.666 527.614 360.16 527.095 360.46C525.888 361.158 525.13 361.595 524.123 361.595Z" fill="#FFFAEC"/>
<path d="M320.315 195.1C357.871 195.1 388.315 164.656 388.315 127.1C388.315 89.545 357.871 59.1003 320.315 59.1003C282.76 59.1003 252.315 89.545 252.315 127.1C252.315 164.656 282.76 195.1 320.315 195.1Z" fill="#FF6884"/>
<path d="M583.04 431.164C583.04 431.628 582.664 432.004 582.2 432.004H0V430.324H582.2C582.664 430.324 583.04 430.701 583.04 431.164V431.164Z" fill="#E6E6E6"/>
<path d="M495.315 431.1C495.315 469.208 499.315 497.1 457.815 500.1C413.252 503.322 420.315 469.208 420.315 431.1C420.315 392.993 414.315 355.1 457.815 362.1C478.263 365.391 495.315 392.993 495.315 431.1Z" fill="#3F3D56"/>
<path d="M432.315 479.101C435.629 479.101 438.315 457.61 438.315 431.101C438.315 404.591 435.629 383.101 432.315 383.101C429.002 383.101 426.315 404.591 426.315 431.101C426.315 457.61 429.002 479.101 432.315 479.101Z" fill="#E6E6E6"/>
<path d="M194.954 369.734C194.954 403.363 198.483 427.978 161.86 430.625C122.534 433.468 128.767 403.363 128.767 369.734C128.767 336.105 123.472 302.666 161.86 308.843C179.905 311.747 194.954 336.105 194.954 369.734Z" fill="#3F3D56"/>
<path d="M139.357 412.093C142.281 412.093 144.652 393.128 144.652 369.734C144.652 346.34 142.281 327.375 139.357 327.375C136.433 327.375 134.062 346.34 134.062 369.734C134.062 393.128 136.433 412.093 139.357 412.093Z" fill="#E6E6E6"/>
<path d="M251.815 430.6C251.815 468.708 255.815 496.6 214.315 499.6C169.752 502.822 176.815 468.708 176.815 430.6C176.815 392.493 170.815 354.6 214.315 361.6C234.763 364.891 251.815 392.493 251.815 430.6Z" fill="#3F3D56"/>
<path d="M188.815 478.601C192.129 478.601 194.815 457.11 194.815 430.601C194.815 404.091 192.129 382.601 188.815 382.601C185.502 382.601 182.815 404.091 182.815 430.601C182.815 457.11 185.502 478.601 188.815 478.601Z" fill="#E6E6E6"/>
<path d="M133.315 289.1V312.754L126.815 323.6L128.815 361.6L130.434 362.6L129.315 324.1C140.709 319.859 144.434 327.672 143.315 343.1L141.315 369.1L173.315 389.1L177.315 348.1L192.315 341.1L208.815 410.6H485.264C496.66 410.6 505.766 401.118 505.305 389.731L501.815 303.6L492.402 294.187L483.682 193.322C481.507 168.169 460.179 149.024 434.937 149.568L262.003 153.295C252.621 153.497 243.352 155.386 234.64 158.871L192.815 175.6L165.819 202.597L161.815 267.6L151.608 266.713C144.265 266.074 137.569 270.927 135.889 278.103L133.315 289.1H133.315Z" fill="#E6E6E6"/>
<path d="M222.815 382.601C228.338 382.601 232.815 378.123 232.815 372.601C232.815 367.078 228.338 362.601 222.815 362.601C217.293 362.601 212.815 367.078 212.815 372.601C212.815 378.123 217.293 382.601 222.815 382.601Z" fill="#3F3D56"/>
<path d="M245.815 382.601C251.338 382.601 255.815 378.123 255.815 372.601C255.815 367.078 251.338 362.601 245.815 362.601C240.293 362.601 235.815 367.078 235.815 372.601C235.815 378.123 240.293 382.601 245.815 382.601Z" fill="#3F3D56"/>
<path d="M469.815 382.601C475.338 382.601 479.815 378.123 479.815 372.601C479.815 367.078 475.338 362.601 469.815 362.601C464.293 362.601 459.815 367.078 459.815 372.601C459.815 378.123 464.293 382.601 469.815 382.601Z" fill="#3F3D56"/>
<path d="M492.815 382.601C498.338 382.601 502.815 378.123 502.815 372.601C502.815 367.078 498.338 362.601 492.815 362.601C487.293 362.601 482.815 367.078 482.815 372.601C482.815 378.123 487.293 382.601 492.815 382.601Z" fill="#3F3D56"/>
<path d="M477.21 278.672H242.116C240.319 278.672 238.646 277.956 237.405 276.655C236.165 275.354 235.529 273.649 235.613 271.854L239.048 199.229C239.211 195.796 242.03 193.071 245.467 193.027L467.451 190.17C470.729 190.138 473.571 192.569 473.992 195.851L483.667 271.334C483.905 273.188 483.333 275.057 482.097 276.462C480.862 277.866 479.08 278.672 477.21 278.672H477.21Z" fill="white"/>
<path d="M209.292 275.101H194.038C192.228 275.101 190.486 274.339 189.258 273.01C188.029 271.681 187.406 269.884 187.548 268.079L191.939 212.358C192.18 209.299 194.47 206.858 197.508 206.425L213.27 204.173C215.244 203.893 217.209 204.515 218.66 205.884C220.11 207.254 220.846 209.179 220.678 211.166L215.779 269.139C215.492 272.537 212.703 275.101 209.292 275.101V275.101Z" fill="white"/>
<path d="M174.213 273.684C174.055 273.684 173.896 273.679 173.738 273.668L171.947 273.54C170.178 273.413 168.574 272.597 167.431 271.24C166.288 269.883 165.757 268.164 165.933 266.398L170.86 217.125C171.152 214.208 173.375 211.834 176.268 211.351C178.239 211.02 180.22 211.602 181.702 212.942C183.184 214.28 183.961 216.191 183.835 218.184L180.698 267.587C180.587 269.332 179.801 270.927 178.484 272.077C177.287 273.123 175.786 273.684 174.213 273.684L174.213 273.684Z" fill="white"/>
<path d="M149.41 374.214L146.815 317.601C146.815 317.601 140.815 309.601 136.815 311.601C132.815 313.601 126.875 324.723 126.875 324.723C126.875 324.723 138.469 323.963 138.142 336.282C137.815 348.601 140.128 368.53 140.128 368.53L149.41 374.214Z" fill="#CCCCCC"/>
<path d="M173.559 389.006L174.815 346.77L187.536 331.746C187.536 331.746 204.536 328.073 204.176 347.337C203.815 366.6 209.315 411.1 209.315 411.1L196.884 403.293C196.884 403.293 193.815 355.6 184.815 350.6C175.815 345.6 178.815 349.6 178.815 349.6L173.559 389.006H173.559Z" fill="#CCCCCC"/>
<path d="M160.312 280.732L150.456 275.1H151.532C153.069 275.1 154.315 273.854 154.315 272.317V247.884C154.315 246.346 153.069 245.1 151.532 245.1H141.099C139.562 245.1 138.315 246.346 138.315 247.884V272.317C138.315 273.854 139.562 275.1 141.099 275.1H146.425L159.319 282.468L160.312 280.732V280.732Z" fill="#3F3D56"/>
<path d="M173.627 317.342L165.938 315.131C164.081 314.597 162.142 315.67 161.607 317.528C161.073 319.385 162.146 321.324 164.004 321.859L171.692 324.07C173.55 324.604 175.489 323.531 176.023 321.673C176.557 319.815 175.485 317.876 173.627 317.342Z" fill="#3F3D56"/>
<path d="M486.844 246.35L453.97 244.931C452.039 244.848 450.406 246.346 450.322 248.277C450.239 250.208 451.737 251.841 453.668 251.925L486.542 253.344C488.474 253.427 490.107 251.929 490.19 249.998C490.273 248.067 488.776 246.434 486.844 246.35Z" fill="#3F3D56"/>
<path d="M517.844 312.35L484.97 310.931C483.039 310.848 481.406 312.346 481.322 314.277C481.239 316.208 482.737 317.841 484.668 317.925L517.542 319.344C519.474 319.427 521.107 317.929 521.19 315.998C521.274 314.067 519.776 312.434 517.844 312.35Z" fill="#3F3D56"/>
<path d="M383.815 388.601C425.789 388.601 459.815 354.574 459.815 312.601C459.815 270.627 425.789 236.601 383.815 236.601C341.842 236.601 307.815 270.627 307.815 312.601C307.815 354.574 341.842 388.601 383.815 388.601Z" fill="#3F3D56"/>
<path d="M383.815 357.601C408.668 357.601 428.815 337.453 428.815 312.601C428.815 287.748 408.668 267.601 383.815 267.601C358.963 267.601 338.815 287.748 338.815 312.601C338.815 337.453 358.963 357.601 383.815 357.601Z" fill="#E6E6E6"/>
<path d="M484.507 161.667C484.889 166.103 487.488 169.502 490.311 169.258C493.135 169.014 495.113 165.221 494.729 160.783C494.601 159.008 494.049 157.29 493.12 155.772L491.262 136.995L482.469 138.055L485.234 156.453C484.579 158.108 484.329 159.896 484.507 161.667L484.507 161.667Z" fill="#FFB6B6"/>
<path d="M459.058 52.9745C459.058 52.9745 468.76 50.2418 472.489 54.8686C476.219 59.4955 490.129 104.932 490.129 104.932L494.448 153.834L480.675 149.666L475.315 111.1L466.315 91.1004L459.058 52.9745Z" fill="#ACD1AF"/>
<path d="M455.891 23.5579H426.323V51.5964H455.891V23.5579Z" fill="#0A191A"/>
<path d="M440.794 37.8429C448.756 37.8429 455.211 31.3883 455.211 23.4262C455.211 15.4641 448.756 9.00952 440.794 9.00952C432.832 9.00952 426.378 15.4641 426.378 23.4262C426.378 31.3883 432.832 37.8429 440.794 37.8429Z" fill="#FFB6B6"/>
<path d="M433.97 0.107427C424.756 1.53357 425.195 4.95737 422.245 6.73473C417.047 9.86605 414.996 18.9084 417.741 24.8753C418.475 26.4696 420.021 28.6445 419.271 30.9928C418.695 32.7955 417.034 33.8589 416.722 34.0515C414.169 35.6278 415.836 33.7526 414.683 35.0711C413.409 36.5265 415.382 38.5823 414.173 41.1886C413.101 43.4993 410.891 43.3042 410.604 44.7572C410.11 47.2592 415.783 52.2899 421.82 51.8943C427.195 51.5421 431.188 46.9977 432.525 42.718C433.421 39.8512 433.807 34.92 431.506 32.5222C431.183 32.1859 430.301 31.3715 429.467 29.9732C428.807 28.8667 427.938 27.4101 428.447 26.4047C428.989 25.3335 430.527 25.8973 431.506 24.8753C432.834 23.4893 431.256 21.1476 431.506 18.7578C431.929 14.711 437.663 9.84393 443.741 10.6011C450.636 11.46 453.165 18.958 453.427 19.7773C453.969 21.4756 453.958 23.1186 453.937 26.4046C453.906 31.1203 453.886 34.076 452.407 37.1103C450.28 41.4745 447.57 41.003 446.8 44.2474C445.598 49.3058 451.251 54.3862 451.897 54.953C456.691 59.1553 463.931 60.4188 465.152 58.5216C466.252 56.8118 461.423 54.1523 461.584 48.8355C461.722 44.228 465.451 42.8235 464.642 39.6592C463.752 36.1761 459.002 36.9707 456.995 33.0319C455.122 29.3555 458.574 27.3157 458.015 19.7773C457.897 18.1827 457.396 13.606 454.446 9.07171C453.147 7.07411 451.826 5.04247 449.349 3.97379C446.576 2.77741 438.844 -0.646943 433.97 0.107417V0.107427Z" fill="#0A191A"/>
<path d="M427.853 12.8522C428.227 16.0091 432.967 17.5561 434.99 17.9501C435.847 18.117 438.741 18.681 441.617 17.4404C442.68 16.9818 443.067 16.5671 444.166 16.4208C445.654 16.2228 446.403 16.7886 448.754 17.4404C451.369 18.1652 452.676 18.5276 453.342 17.9501C454.432 17.0062 453.595 13.9183 452.323 11.8326C449.971 7.97615 445.665 6.78195 443.656 6.22492C441.362 5.58855 436.706 4.29714 432.441 6.73471C431.871 7.06061 427.473 9.64486 427.853 12.8522V12.8522Z" fill="#0A191A"/>
<path d="M498.028 296.498L505.387 296.672L509.488 263.614L498.629 263.357L498.028 296.498Z" fill="#FFB6B6"/>
<path d="M523.273 311.85C523.273 313.093 522.391 314.1 521.303 314.1H506.698C506.698 314.1 505.26 308.323 499.4 305.837L498.996 314.1H491.461L492.374 300.812C492.374 300.812 490.359 293.703 494.545 290.069C498.73 286.435 495.34 286.941 495.34 286.941L496.987 278.717L508.372 280.056L508.456 292.966L513.981 305.781L522.085 309.784C522.806 310.14 523.273 310.952 523.273 311.85L523.273 311.85H523.273Z" fill="#0A191A"/>
<path d="M464.574 231.751L471.77 230.202L468.041 197.101L457.422 199.386L464.574 231.751Z" fill="#FFB6B6"/>
<path d="M492.706 240.785C492.996 241.994 492.373 243.18 491.315 243.434L477.113 246.843C477.113 246.843 474.367 241.561 468.089 240.511L469.624 248.641L462.298 250.4L460.084 237.266C460.084 237.266 456.464 230.824 459.686 226.313C462.908 221.802 459.729 223.086 459.729 223.086L459.411 214.704L470.794 213.348L473.889 225.882L482.253 237.053L491.068 239.054C491.852 239.232 492.496 239.912 492.706 240.785H492.706V240.785Z" fill="#0A191A"/>
<path d="M450.815 39.6005L432.815 40.6005L427.815 50.6005L408.815 60.6005L411.815 109.911L404.96 134.714L405.815 141.6L472.815 139.6L468.815 65.6005L469.815 53.6005L456.815 49.6005L450.815 39.6005Z" fill="#ACD1AF"/>
<path d="M406.315 132.101C406.315 132.101 391.315 158.605 406.315 162.353C412.988 164.02 420.057 165.143 425.849 165.877C432.783 166.755 439.166 161.995 440.315 155.101L456.315 210.101L472.315 206.101L475.315 177.471L494.756 196.912L492.315 275.101L510.315 274.101L529.315 189.101C529.315 189.101 530.315 183.101 515.315 175.101C500.315 167.101 473.315 141.101 473.315 141.101L427.315 127.101L406.315 132.101Z" fill="#0A191A"/>
<path d="M437.815 149.6L411.815 132.6L443.815 98.6004C443.815 98.6004 461.815 91.6004 466.815 118.6C471.815 145.6 474.815 169.6 474.815 169.6L437.815 149.6Z" fill="#0A191A"/>
<path d="M384.17 98.8485L385.31 91.1003C386.14 85.4537 382.395 80.5257 377.315 79.3126V76.1003C377.315 73.3389 375.077 71.1003 372.315 71.1003C369.554 71.1003 367.315 73.3389 367.315 76.1003V80.3853L348.315 84.4155V79.1003C348.315 76.3389 346.077 74.1003 343.315 74.1003C340.554 74.1003 338.315 76.3389 338.315 79.1003V84.1519L336.427 83.6592C330.786 82.1876 326.33 88.6597 329.838 93.3154C329.883 93.3755 329.929 93.4358 329.976 93.496C334.66 99.5176 335.998 104.87 335.998 104.87L332.652 122.935L336.463 160.492C336.954 165.333 341.12 168.96 345.982 168.78L382.975 167.41C387.833 167.23 391.723 163.313 391.855 158.453C392.326 141.142 392.381 103.467 384.17 98.8485V98.8485Z" fill="#3F3D56"/>
<path d="M351.051 163.744C350.532 163.744 350.094 163.344 350.055 162.819L348.047 136.056C348.006 135.506 348.419 135.026 348.97 134.985C349.516 134.942 350 135.356 350.041 135.907L352.049 162.67C352.09 163.22 351.677 163.7 351.126 163.741C351.101 163.743 351.076 163.744 351.051 163.744Z" fill="#FFB6B6"/>
<path d="M335.996 105.87C335.508 105.87 335.081 105.512 335.008 105.015C334.928 104.469 335.306 103.961 335.852 103.881L384.182 96.7981C384.728 96.719 385.236 97.0959 385.316 97.6423C385.396 98.1887 385.018 98.6965 384.472 98.7766L336.143 105.86C336.093 105.867 336.044 105.87 335.996 105.87Z" fill="#FFB6B6"/>
<path d="M52.0968 395.616C51.7599 395.048 50.3023 395.657 50.0344 395.141C49.7673 394.627 51.1216 393.845 51.8953 392.056C52.0348 391.734 52.914 389.702 52.2631 389.075C51.0294 387.886 45.3836 392.791 43.4079 391.186C42.9743 390.834 42.6714 390.131 41.359 388.989C40.837 388.535 40.5213 388.33 40.2157 388.406C39.7822 388.514 39.7479 389.094 39.283 390.235C38.5859 391.946 38.1735 391.843 37.7674 393.208C37.4658 394.221 37.5347 394.81 37.1799 394.925C36.6778 395.087 36.2156 394.013 35.5793 394.109C34.93 394.207 34.5374 395.458 34.4134 396.395C34.1807 398.154 34.8264 399.314 35.1843 400.534C35.5732 401.86 35.804 403.876 34.9059 406.73L26.0161 431.777C27.9787 426.637 33.6613 412.549 36.0491 407.313C36.7385 405.802 37.4996 404.269 39.0624 403.664C40.567 403.081 42.6334 403.429 45.2678 402.794C45.5754 402.72 46.4292 402.503 46.5367 402.001C46.6255 401.586 46.1233 401.354 46.2005 400.965C46.304 400.443 47.2915 400.437 48.5051 399.835C49.3609 399.411 49.894 398.906 50.3525 398.472C50.4907 398.342 52.5453 396.373 52.0968 395.616H52.0968Z" fill="#FFFAEC"/>
<path d="M17.122 408.802C16.7459 408.804 16.6239 409.695 16.2936 409.677C15.9644 409.66 15.971 408.77 15.3166 407.874C15.1986 407.713 14.4549 406.695 13.9593 406.833C13.02 407.096 13.7983 411.282 12.4405 411.789C12.1425 411.9 11.71 411.846 10.771 412.16C10.3974 412.285 10.2057 412.381 10.155 412.553C10.083 412.797 10.3579 412.981 10.7837 413.539C11.4222 414.375 11.2525 414.547 11.8053 415.14C12.2156 415.581 12.5246 415.717 12.4786 415.924C12.4134 416.217 11.7526 416.134 11.6162 416.474C11.477 416.821 11.978 417.375 12.4021 417.706C13.1979 418.328 13.9536 418.346 14.6556 418.522C15.4186 418.714 16.4748 419.182 17.6165 420.446L27.3447 432.036C25.3885 429.59 20.1132 422.736 18.2325 420.053C17.6896 419.279 17.1568 418.463 17.3107 417.522C17.459 416.615 18.2259 415.701 18.6745 414.225C18.7269 414.053 18.8666 413.571 18.6512 413.373C18.473 413.21 18.2144 413.39 18.0458 413.24C17.8197 413.038 18.1015 412.552 18.1563 411.782C18.195 411.24 18.1011 410.833 18.0204 410.482C17.9961 410.377 17.6226 408.8 17.122 408.802V408.802Z" fill="#FFFAEC"/>
<path d="M24.624 410.486L24.3975 408.464L24.501 408.31C24.98 407.601 25.2241 406.909 25.2271 406.252C25.2275 406.147 25.2227 406.043 25.2178 405.936C25.1982 405.514 25.1738 404.99 25.4473 404.379C25.6006 404.038 26.0312 403.249 26.6787 403.347C26.853 403.371 26.9849 403.451 27.085 403.545L27.1309 403.473C27.3325 403.165 27.4922 403.033 27.646 402.906C27.7642 402.808 27.8862 402.708 28.0776 402.47C28.1616 402.365 28.2271 402.273 28.2822 402.196C28.4497 401.963 28.6685 401.684 29.0542 401.689C29.4663 401.709 29.6821 402.05 29.8252 402.275C30.0806 402.678 30.1963 402.968 30.273 403.16C30.3008 403.23 30.3325 403.309 30.3486 403.334C30.4814 403.529 31.561 403.347 31.9678 403.28C32.8813 403.128 33.6719 402.996 33.9976 403.572C34.231 403.984 34.0576 404.529 33.4668 405.235C33.2827 405.455 33.0869 405.622 32.9131 405.753C33.0571 405.839 33.186 405.971 33.2383 406.178C33.3613 406.668 32.94 407.159 31.9863 407.639C31.7495 407.76 31.4307 407.92 30.9839 407.997C30.7735 408.033 30.584 408.042 30.4219 408.047C30.4185 408.14 30.3965 408.242 30.3394 408.346C30.1719 408.654 29.8233 408.801 29.2979 408.765C28.7198 408.735 28.2437 408.625 27.8238 408.528C27.4571 408.444 27.1411 408.373 26.8931 408.389C26.4331 408.427 26.0786 408.795 25.6626 409.272L24.6241 410.486L24.624 410.486Z" fill="#FFFAEC"/>
<path d="M25.6749 398.444L23.776 399.177L23.6015 399.115C22.7942 398.832 22.0625 398.771 21.426 398.935C21.3248 398.961 21.225 398.992 21.1233 399.024C20.7202 399.15 20.2191 399.307 19.5584 399.197C19.1898 399.135 18.3173 398.919 18.2476 398.268C18.227 398.093 18.271 397.945 18.3363 397.825L18.2547 397.799C17.906 397.682 17.738 397.561 17.5762 397.444C17.4518 397.354 17.3235 397.262 17.0445 397.137C16.9221 397.082 16.8167 397.042 16.7281 397.009C16.4598 396.906 16.1351 396.765 16.042 396.39C15.9564 395.987 16.2313 395.692 16.4132 395.496C16.7376 395.147 16.9888 394.961 17.1555 394.839C17.2164 394.794 17.2849 394.743 17.3044 394.721C17.4597 394.543 17.0092 393.545 16.8418 393.169C16.4627 392.324 16.1346 391.592 16.6094 391.131C16.9488 390.801 17.5199 390.83 18.3527 391.223C18.6119 391.345 18.8231 391.492 18.9938 391.627C19.0404 391.466 19.1352 391.308 19.3222 391.205C19.7652 390.961 20.3472 391.244 21.0539 392.045C21.2301 392.244 21.4659 392.511 21.6539 392.924C21.7422 393.118 21.7988 393.299 21.8446 393.455C21.9361 393.434 22.04 393.43 22.1555 393.459C22.4956 393.543 22.7257 393.843 22.8249 394.36C22.9423 394.927 22.9563 395.415 22.9693 395.846C22.9811 396.222 22.9923 396.546 23.0712 396.781C23.2238 397.217 23.6699 397.466 24.2373 397.748L25.6749 398.444H25.6749Z" fill="#FFFAEC"/>
<path d="M24.624 392.486L24.3975 390.464L24.501 390.31C24.98 389.601 25.2241 388.909 25.2271 388.252C25.2275 388.147 25.2227 388.043 25.2178 387.936C25.1982 387.514 25.1738 386.99 25.4473 386.379C25.6006 386.038 26.0312 385.249 26.6787 385.347C26.853 385.371 26.9849 385.451 27.085 385.545L27.1309 385.473C27.3325 385.165 27.4922 385.033 27.646 384.906C27.7642 384.808 27.8862 384.708 28.0776 384.47C28.1616 384.365 28.2271 384.273 28.2822 384.196C28.4497 383.963 28.6685 383.684 29.0542 383.689C29.4663 383.709 29.6821 384.05 29.8252 384.275C30.0806 384.678 30.1963 384.968 30.273 385.16C30.3008 385.23 30.3325 385.309 30.3486 385.334C30.4814 385.529 31.561 385.347 31.9678 385.28C32.8813 385.128 33.6719 384.996 33.9976 385.572C34.231 385.984 34.0576 386.529 33.4668 387.235C33.2827 387.455 33.0869 387.622 32.9131 387.753C33.0571 387.839 33.186 387.971 33.2383 388.178C33.3613 388.668 32.94 389.159 31.9863 389.639C31.7495 389.76 31.4307 389.92 30.9839 389.997C30.7735 390.033 30.584 390.042 30.4219 390.047C30.4185 390.14 30.3965 390.242 30.3394 390.346C30.1719 390.654 29.8233 390.801 29.2979 390.765C28.7198 390.735 28.2437 390.625 27.8238 390.528C27.4571 390.444 27.1411 390.373 26.8931 390.389C26.4331 390.427 26.0786 390.795 25.6626 391.272L24.6241 392.486L24.624 392.486Z" fill="#FFFAEC"/>
<path d="M26.6934 431.744L26.2695 431.479L26.167 430.989L26.2695 431.479L25.7754 431.535C25.7676 431.489 25.7407 431.384 25.7002 431.219C25.479 430.314 24.8047 427.562 24.2422 423.229C23.8496 420.203 23.6274 417.093 23.5815 413.982C23.5356 410.867 23.6831 408.509 23.8013 406.613C23.8906 405.184 23.999 403.822 24.1055 402.496C24.3887 398.953 24.6558 395.606 24.457 391.901C24.4131 391.074 24.3208 389.353 23.3149 387.521C22.7314 386.458 21.9277 385.515 20.9258 384.718L21.5488 383.935C22.6548 384.815 23.544 385.86 24.1919 387.04C25.3071 389.071 25.4077 390.947 25.4561 391.849C25.6582 395.619 25.3882 398.998 25.1021 402.575C24.9966 403.896 24.8882 405.252 24.7993 406.676C24.6821 408.554 24.5362 410.892 24.5816 413.967C24.6265 417.04 24.8462 420.112 25.2334 423.1C25.7891 427.379 26.4536 430.09 26.6719 430.98C26.7881 431.456 26.8125 431.556 26.6934 431.744H26.6934Z" fill="#FFFAEC"/>
<path d="M19.0918 386.307C19.0508 386.307 19.0093 386.306 18.9673 386.303C18.1158 386.257 17.3272 385.747 16.6231 384.788C16.293 384.337 16.1241 383.822 15.7871 382.796C15.7349 382.638 15.481 381.835 15.3267 380.73C15.2256 380.009 15.2383 379.707 15.3814 379.44C15.5401 379.143 15.7969 378.936 16.086 378.797C16.0733 378.701 16.0835 378.602 16.125 378.502C16.2954 378.085 16.7486 378.14 16.9937 378.166C17.1177 378.182 17.2725 378.202 17.4395 378.193C17.7022 378.181 17.8433 378.102 18.0572 377.985C18.2618 377.873 18.5161 377.733 18.8936 377.656C19.6377 377.501 20.2613 377.712 20.4668 377.781C21.5484 378.141 22.0816 378.982 22.6988 379.956C22.8218 380.151 23.2442 380.862 23.523 381.837C23.7242 382.54 23.6958 382.852 23.6353 383.085C23.5122 383.562 23.2217 383.836 22.4839 384.439C21.7134 385.071 21.3267 385.388 20.9947 385.58C20.2217 386.026 19.7364 386.307 19.0918 386.307L19.0918 386.307Z" fill="#FFFAEC"/>
<path d="M611.308 281.689L611.767 245.955L598.05 242.181L598.465 281.694L595.309 310.892L595.391 310.923C594.068 312.253 592.994 314.377 592.537 316.887C591.703 321.468 593.232 325.582 595.952 326.077C598.671 326.573 601.552 323.261 602.386 318.68C602.728 316.8 602.667 315.003 602.294 313.498L602.416 313.544L611.308 281.689Z" fill="#A0616A"/>
<path d="M586.361 197.69C586.361 197.69 592.586 192.929 596.98 199.887C601.374 206.844 613.458 241.998 613.458 241.998C613.458 241.998 616.953 258.11 616.121 260.49C615.289 262.87 614.191 283.819 614.191 283.819L597.022 280.705L597.437 260.49L581.076 234.376L586.361 197.69V197.69Z" fill="#CCCCCC"/>
<path d="M471.376 184.712L495.436 211.136L508.035 204.529L480.757 175.94L463.13 152.45L463.049 152.484C463.108 150.608 462.442 148.324 461.062 146.178C458.545 142.261 454.619 140.298 452.293 141.793C449.968 143.288 450.124 147.675 452.642 151.591C453.675 153.199 454.946 154.47 456.246 155.315L456.126 155.365L471.376 184.712H471.376Z" fill="#A0616A"/>
<path d="M548.326 229.059C548.326 229.059 547.027 236.787 539.066 234.703C531.105 232.619 498.276 215.182 498.276 215.182C498.276 215.182 484.723 205.795 483.706 203.487C482.689 201.18 469.19 185.123 469.19 185.123L483.861 175.677L497.359 190.732L527.141 198.645L548.326 229.059V229.059Z" fill="#CCCCCC"/>
<path d="M552.885 177.489C563.438 177.489 571.992 168.934 571.992 158.381C571.992 147.828 563.438 139.273 552.885 139.273C542.332 139.273 533.777 147.828 533.777 158.381C533.777 168.934 542.332 177.489 552.885 177.489Z" fill="#A0616A"/>
<path d="M586.404 493.116L574.545 493.114L568.904 447.372L586.407 447.373L586.404 493.116Z" fill="#A0616A"/>
<path d="M545.774 492.847C545.404 493.468 545.209 495.476 545.209 496.199C545.209 498.422 547.011 500.224 549.234 500.224H585.961C587.477 500.224 588.707 498.994 588.707 497.478V495.949C588.707 495.949 590.524 491.353 586.783 485.689C586.783 485.689 582.134 490.124 575.187 483.178L573.139 479.467L558.31 490.311L550.091 491.323C548.293 491.544 546.699 491.289 545.774 492.847H545.774Z" fill="#0A191A"/>
<path d="M552.404 493.116L540.545 493.114L534.904 447.372L552.407 447.373L552.404 493.116Z" fill="#A0616A"/>
<path d="M511.774 492.847C511.404 493.468 511.209 495.476 511.209 496.199C511.209 498.422 513.012 500.224 515.235 500.224H551.961C553.477 500.224 554.707 498.994 554.707 497.478V495.949C554.707 495.949 556.524 491.353 552.783 485.689C552.783 485.689 548.134 490.124 541.187 483.178L539.139 479.467L524.31 490.311L516.091 491.323C514.293 491.544 512.699 491.289 511.774 492.847H511.774Z" fill="#0A191A"/>
<path d="M594.815 294.601L517.815 298.601L534.815 472.601L551.815 471.601L557.815 366.601L560.315 329.101L570.512 468.723L587.815 468.601L594.815 294.601Z" fill="#0A191A"/>
<path d="M572.005 182.601L542.842 181.601L523.315 201.018V264.628L515.69 304.601C515.69 304.601 566.977 299.601 577.033 309.601C587.089 319.601 605.19 312.601 605.19 312.601L596.14 259.715L592.117 198.601L572.005 182.601Z" fill="#CCCCCC"/>
<path d="M561.297 177.101L545.041 173.26L542.533 163.405C542.533 163.405 542.473 158.759 540.279 158.241C538.086 157.723 534.218 154.494 534.218 154.494L537.965 148.432C537.965 148.432 528.933 147.456 531.645 145.781C534.356 144.106 534.748 144.86 535.133 140.816C535.93 132.447 561.536 133.669 563.525 138.26C563.525 138.26 566.815 139.038 568.49 141.749C570.165 144.46 571.003 145.816 572.1 146.075C573.196 146.334 573.775 148.787 573.775 148.787C573.775 148.787 577.643 152.016 576.287 152.854C574.932 153.691 573.895 158.078 573.895 158.078C573.895 158.078 577.505 162.404 569.431 172.075L565.129 178.995L561.297 177.101V177.101Z" fill="#0A191A"/>
<path d="M582.17 205.202L583.31 197.454C584.14 191.807 580.395 186.879 575.315 185.666V182.454C575.315 179.693 573.077 177.454 570.315 177.454C567.554 177.454 565.315 179.693 565.315 182.454V186.739L546.315 190.769V185.454C546.315 182.693 544.077 180.454 541.315 180.454C538.554 180.454 536.315 182.693 536.315 185.454V190.506L534.427 190.013C528.786 188.541 524.33 195.013 527.838 199.669C527.883 199.729 527.929 199.79 527.976 199.85C532.66 205.871 533.998 211.224 533.998 211.224L530.652 229.289L534.463 266.846C534.954 271.687 539.12 275.314 543.982 275.134L580.975 273.764C585.833 273.584 589.723 269.666 589.855 264.807C590.326 247.496 590.381 209.82 582.17 205.202V205.202Z" fill="#3F3D56"/>
<path d="M549.051 270.098C548.532 270.098 548.094 269.698 548.055 269.173L546.047 242.41C546.006 241.859 546.419 241.379 546.97 241.338C547.516 241.295 548 241.71 548.041 242.261L550.049 269.023C550.09 269.574 549.677 270.054 549.126 270.095C549.101 270.097 549.076 270.098 549.051 270.098Z" fill="#FFB6B6"/>
<path d="M533.996 212.224C533.508 212.224 533.081 211.866 533.008 211.369C532.928 210.823 533.306 210.315 533.852 210.235L582.182 203.152C582.728 203.073 583.236 203.45 583.316 203.996C583.396 204.542 583.018 205.05 582.472 205.13L534.143 212.213C534.093 212.221 534.044 212.224 533.996 212.224Z" fill="#FFB6B6"/>
<path d="M536.202 271.699L517.315 226.101L522.315 228.101L542.429 268.502L536.202 271.699Z" fill="#3F3D56"/>
<path d="M654.04 500.164C654.04 500.628 653.664 501.004 653.2 501.004H71V499.324H653.2C653.664 499.324 654.04 499.701 654.04 500.164V500.164Z" fill="#E6E6E6"/>
<path d="M447.676 143.671C450.919 146.722 455.122 147.521 457.063 145.457C459.005 143.393 457.949 139.247 454.704 136.195C453.425 134.958 451.868 134.046 450.163 133.534L436.259 120.78L430.413 127.433L444.741 139.3C445.356 140.97 446.362 142.469 447.676 143.671Z" fill="#FFB6B6"/>
<path d="M435.776 77.5923C435.776 77.5923 418.823 56.4734 412.315 58.1004C404.315 60.1004 406.315 68.1004 398.04 89.4965C395.968 94.855 393.791 100.048 397.974 103.987L409.506 114.848L434.09 135.576L443.98 125.223L424.332 99.8863L435.776 77.5923L435.776 77.5923Z" fill="#ACD1AF"/>
</g>
<defs>
<clipPath id="clip0_90_307">
<rect width="654.04" height="501.005" fill="white"/>
</clipPath>
</defs>
</svg>
