<svg width="45" height="15" viewBox="0 0 45 15" fill="none" xmlns="http://www.w3.org/2000/svg">
<path d="M0.2 8.18V6.66L9.22 2.32V3.7L1.66 7.42L9.22 11.16V12.54L0.2 8.18ZM21.3803 13.64V15H17.5203V13.64H18.4803V6.24L14.5003 8.74V13.64H15.4803V15H11.6203V13.64H12.8803V1.36H11.6203V-1.19209e-06H14.5003V7.12L17.8203 5.04C18.0736 4.88 18.3736 4.8 18.7203 4.8C19.067 4.8 19.3803 4.94 19.6603 5.22C19.9536 5.48667 20.1003 5.87333 20.1003 6.38V13.64H21.3803ZM24.1875 11.38C24.1875 10.2867 24.5475 9.51333 25.2675 9.06L31.0275 5.48V1.36H25.7675V3.8H24.2075V-1.19209e-06H30.0275C31.0142 -1.19209e-06 31.7075 0.173332 32.1075 0.519999C32.4808 0.839999 32.6675 1.44 32.6675 2.32V4.66C32.6675 5.58 32.3408 6.24 31.6875 6.64L25.7475 10.4V13.64H31.0075V11.8H32.6875V15H24.1875V11.38ZM35.2953 2.32L44.3153 6.66V8.18L35.2953 12.54V11.16L42.8553 7.42L35.2953 3.7V2.32Z" fill="#65CCA9"/>
</svg>
