<svg width="54" height="21" viewBox="0 0 54 21" fill="none" xmlns="http://www.w3.org/2000/svg">
<path d="M0.2 11.18V9.66L9.22 5.32V6.7L1.66 10.42L9.22 14.16V15.54L0.2 11.18ZM17.5603 0.599999H19.1003L12.4803 21H10.9203L17.5603 0.599999ZM30.7592 16.64V18H26.8992V16.64H27.8592V9.24L23.8792 11.74V16.64H24.8592V18H20.9992V16.64H22.2592V4.36H20.9992V3H23.8792V10.12L27.1992 8.04C27.4526 7.88 27.7526 7.8 28.0992 7.8C28.4459 7.8 28.7592 7.94 29.0392 8.22C29.3326 8.48667 29.4792 8.87333 29.4792 9.38V16.64H30.7592ZM33.5664 14.38C33.5664 13.2867 33.9264 12.5133 34.6464 12.06L40.4064 8.48V4.36H35.1464V6.8H33.5864V3H39.4064C40.3931 3 41.0864 3.17333 41.4864 3.52C41.8597 3.84 42.0464 4.44 42.0464 5.32V7.66C42.0464 8.58 41.7197 9.24 41.0664 9.64L35.1264 13.4V16.64H40.3864V14.8H42.0664V18H33.5664V14.38ZM44.6742 5.32L53.6942 9.66V11.18L44.6742 15.54V14.16L52.2342 10.42L44.6742 6.7V5.32Z" fill="#65CCA9"/>
</svg>
