<svg width="75" height="21" viewBox="0 0 75 21" fill="none" xmlns="http://www.w3.org/2000/svg">
<path d="M0.2 11.18V9.66L9.22 5.32V6.7L1.66 10.42L9.22 14.16V15.54L0.2 11.18ZM17.5603 0.599999H19.1003L12.4803 21H10.9203L17.5603 0.599999ZM30.7592 16.64V18H26.8992V16.64H27.8592V9.24L23.8792 11.74V16.64H24.8592V18H20.9992V16.64H22.2592V4.36H20.9992V3H23.8792V10.12L27.1992 8.04C27.4526 7.88 27.7526 7.8 28.0992 7.8C28.4459 7.8 28.7592 7.94 29.0392 8.22C29.3326 8.48667 29.4792 8.87333 29.4792 9.38V16.64H30.7592ZM36.4064 4.36V8H38.0264V9.44H36.4064V16.64H38.3064V18H36.6264C36.0264 18 35.5797 17.8467 35.2864 17.54C34.9931 17.22 34.8464 16.68 34.8464 15.92V9.44H33.3664V8H34.8464V4.36H36.4064ZM52.6141 7.8C53.6541 7.8 54.1741 8.31333 54.1741 9.34V16.64H55.4541V18H51.5941V16.64H52.5541V9.2L48.8941 11.48V16.64H49.8741V18H46.2941V16.64H47.2541L47.2741 16.56V9.18L43.5941 11.48V16.64H44.5741V18H40.7141V16.64H41.9741V9.34H40.7141V8H43.5941V9.9L46.6141 8C46.8274 7.86667 47.0674 7.8 47.3341 7.8C48.3741 7.8 48.8941 8.31333 48.8941 9.34V9.88L51.8941 8C52.1074 7.86667 52.3474 7.8 52.6141 7.8ZM61.1617 16.64H62.4617V18H58.2617V16.64H59.5217V4.36H58.2617V3H61.1617V16.64ZM65.0531 5.32L74.0731 9.66V11.18L65.0531 15.54V14.16L72.6131 10.42L65.0531 6.7V5.32Z" fill="#65CCA9"/>
</svg>
