<svg width="65" height="15" viewBox="0 0 65 15" fill="none" xmlns="http://www.w3.org/2000/svg">
<path d="M0.2 8.18V6.66L9.22 2.32V3.7L1.66 7.42L9.22 11.16V12.54L0.2 8.18ZM21.3803 13.64V15H17.5203V13.64H18.4803V6.24L14.5003 8.74V13.64H15.4803V15H11.6203V13.64H12.8803V1.36H11.6203V-1.19209e-06H14.5003V7.12L17.8203 5.04C18.0736 4.88 18.3736 4.8 18.7203 4.8C19.067 4.8 19.3803 4.94 19.6603 5.22C19.9536 5.48667 20.1003 5.87333 20.1003 6.38V13.64H21.3803ZM27.0275 1.36V5H28.6475V6.44H27.0275V13.64H28.9275V15H27.2475C26.6475 15 26.2008 14.8467 25.9075 14.54C25.6142 14.22 25.4675 13.68 25.4675 12.92V6.44H23.9875V5H25.4675V1.36H27.0275ZM43.2352 4.8C44.2752 4.8 44.7952 5.31333 44.7952 6.34V13.64H46.0752V15H42.2152V13.64H43.1752V6.2L39.5152 8.48V13.64H40.4952V15H36.9152V13.64H37.8752L37.8952 13.56V6.18L34.2152 8.48V13.64H35.1952V15H31.3352V13.64H32.5952V6.34H31.3352V5H34.2152V6.9L37.2352 5C37.4485 4.86667 37.6885 4.8 37.9552 4.8C38.9952 4.8 39.5152 5.31333 39.5152 6.34V6.88L42.5152 5C42.7285 4.86667 42.9685 4.8 43.2352 4.8ZM51.7828 13.64H53.0828V15H48.8828V13.64H50.1428V1.36H48.8828V-1.19209e-06H51.7828V13.64ZM55.6742 2.32L64.6942 6.66V8.18L55.6742 12.54V11.16L63.2342 7.42L55.6742 3.7V2.32Z" fill="#65CCA9"/>
</svg>
