<svg width="32" height="18" viewBox="0 0 32 18" fill="none" xmlns="http://www.w3.org/2000/svg">
<path d="M0.2 6.18V4.66L9.22 0.32V1.7L1.66 5.42L9.22 9.16V10.54L0.2 6.18ZM14.5203 11.64H18.7603V4.22L14.5203 6.88V11.64ZM11.6403 16.64H12.8803V4.38H11.6203V3H14.5203V5.28L17.9803 3.1C18.3003 2.9 18.6403 2.8 19.0003 2.8C19.3603 2.8 19.6736 2.91333 19.9403 3.14C20.2203 3.35333 20.3603 3.67333 20.3603 4.1V11.12C20.3603 11.7333 20.2736 12.1533 20.1003 12.38C19.767 12.7933 19.2536 13 18.5603 13H14.5203V16.64H15.8403V18H11.6403V16.64ZM22.9672 0.32L31.9872 4.66V6.18L22.9672 10.54V9.16L30.5272 5.42L22.9672 1.7V0.32Z" fill="#65CCA9"/>
</svg>
