<svg width="42" height="23" viewBox="0 0 42 23" fill="none" xmlns="http://www.w3.org/2000/svg">
<path d="M0.2 11.18V9.66L9.22 5.32V6.7L1.66 10.42L9.22 14.16V15.54L0.2 11.18ZM17.5603 0.599999H19.1003L12.4803 21H10.9203L17.5603 0.599999ZM23.8992 16.64H28.1392V9.22L23.8992 11.88V16.64ZM21.0192 21.64H22.2592V9.38H20.9992V8H23.8992V10.28L27.3592 8.1C27.6792 7.9 28.0192 7.8 28.3792 7.8C28.7392 7.8 29.0526 7.91333 29.3192 8.14C29.5992 8.35333 29.7392 8.67333 29.7392 9.1V16.12C29.7392 16.7333 29.6526 17.1533 29.4792 17.38C29.1459 17.7933 28.6326 18 27.9392 18H23.8992V21.64H25.2192V23H21.0192V21.64ZM32.3461 5.32L41.3661 9.66V11.18L32.3461 15.54V14.16L39.9061 10.42L32.3461 6.7V5.32Z" fill="#65CCA9"/>
</svg>
