<svg width="97" height="21" viewBox="0 0 97 21" fill="none" xmlns="http://www.w3.org/2000/svg">
<path d="M0.2 11.18V9.66L9.22 5.32V6.7L1.66 10.42L9.22 14.16V15.54L0.2 11.18ZM17.5603 0.599999H19.1003L12.4803 21H10.9203L17.5603 0.599999ZM27.9792 16.24C27.9792 17.4133 27.4059 18 26.2592 18H21.4192V14.98H22.7792V16.64H26.3792V14.98L23.0992 12.92C22.7659 12.7067 22.4792 12.5333 22.2392 12.4C21.9992 12.2667 21.7992 12.1333 21.6392 12C21.3459 11.7333 21.1992 11.3733 21.1992 10.92V9.78C21.1992 9.22 21.2926 8.83333 21.4792 8.62C21.8392 8.20667 22.3726 8 23.0792 8H27.7392V11H26.3792V9.36H22.7792V11.04L26.1792 13.16C26.4592 13.3333 26.7059 13.4867 26.9192 13.62C27.1459 13.74 27.3326 13.8667 27.4792 14C27.8126 14.28 27.9792 14.6133 27.9792 15V16.24ZM30.9883 9.96C30.9883 8.64 31.6749 7.98 33.0483 7.98H36.4283C37.0816 7.98 37.5549 8.10667 37.8483 8.36C38.1416 8.61333 38.2883 9.08 38.2883 9.76V11.62L32.5883 15.22V16.64H36.7083V15.48H38.2883V16.54C38.2883 16.94 38.1616 17.2867 37.9083 17.58C37.6683 17.86 37.2616 18 36.6883 18H32.5883C32.0149 18 31.6016 17.86 31.3483 17.58C31.1083 17.2867 30.9883 16.94 30.9883 16.54V9.96ZM32.5883 13.6L36.6883 11.02V9.36H32.5883V13.6ZM48.0052 18H43.0252C42.0652 18 41.5118 17.64 41.3652 16.92C41.3118 16.7067 41.2852 16.48 41.2852 16.24V9.76C41.2852 9.2 41.4385 8.76667 41.7452 8.46C42.0652 8.14 42.5452 7.98 43.1852 7.98H48.0052V10.52H46.6452V9.36H42.8852V16.64H46.6452V15.48H48.0052V18ZM53.6408 4.36V8H55.2608V9.44H53.6408V16.64H55.5408V18H53.8608C53.2608 18 52.8141 17.8467 52.5208 17.54C52.2274 17.22 52.0808 16.68 52.0808 15.92V9.44H50.6008V8H52.0808V4.36H53.6408ZM61.0484 16.64H62.3484V18H58.1484V16.64H59.4084V9.36H58.1484V8H61.0484V16.64ZM60.2284 4.32C60.5084 4.32 60.7418 4.42667 60.9284 4.64C61.1284 4.84 61.2284 5.08667 61.2284 5.38C61.2284 5.66 61.1284 5.9 60.9284 6.1C60.7418 6.28667 60.5018 6.38 60.2084 6.38C59.9284 6.38 59.6884 6.28667 59.4884 6.1C59.3018 5.9 59.2084 5.66 59.2084 5.38C59.2084 5.08667 59.3084 4.84 59.5084 4.64C59.7084 4.42667 59.9484 4.32 60.2284 4.32ZM66.8045 18C66.1245 18 65.6445 17.8467 65.3645 17.54C65.0845 17.22 64.9445 16.78 64.9445 16.22V9.78C64.9445 9.24667 65.0645 8.82 65.3045 8.5C65.5579 8.16667 66.0579 8 66.8045 8H70.5045C71.2379 8 71.7312 8.16667 71.9845 8.5C72.2379 8.82 72.3645 9.24667 72.3645 9.78V16.22C72.3645 16.78 72.2245 17.22 71.9445 17.54C71.6645 17.8467 71.1845 18 70.5045 18H66.8045ZM66.5645 16.64H70.7445V9.36H66.5645V16.64ZM81.888 7.8C82.928 7.8 83.448 8.31333 83.448 9.34V16.64H84.728V18H80.868V16.64H81.828V9.2L77.848 11.7V16.64H78.828V18H74.968V16.64H76.228V9.34H74.968V8H77.848V10.08L81.168 8C81.3813 7.86667 81.6213 7.8 81.888 7.8ZM87.1352 5.32L96.1552 9.66V11.18L87.1352 15.54V14.16L94.6952 10.42L87.1352 6.7V5.32Z" fill="#65CCA9"/>
</svg>
