<svg width="87" height="14" viewBox="0 0 87 14" fill="none" xmlns="http://www.w3.org/2000/svg">
<path d="M0.2 7.18V5.66L9.22 1.32V2.7L1.66 6.42L9.22 10.16V11.54L0.2 7.18ZM18.6003 12.24C18.6003 13.4133 18.027 14 16.8803 14H12.0403V10.98H13.4003V12.64H17.0003V10.98L13.7203 8.92C13.387 8.70667 13.1003 8.53333 12.8603 8.4C12.6203 8.26667 12.4203 8.13333 12.2603 8C11.967 7.73333 11.8203 7.37333 11.8203 6.92V5.78C11.8203 5.22 11.9136 4.83333 12.1003 4.62C12.4603 4.20667 12.9936 4 13.7003 4H18.3603V7H17.0003V5.36H13.4003V7.04L16.8003 9.16C17.0803 9.33333 17.327 9.48667 17.5403 9.62C17.767 9.74 17.9536 9.86667 18.1003 10C18.4336 10.28 18.6003 10.6133 18.6003 11V12.24ZM21.6094 5.96C21.6094 4.64 22.296 3.98 23.6694 3.98H27.0494C27.7027 3.98 28.176 4.10667 28.4694 4.36C28.7627 4.61333 28.9094 5.08 28.9094 5.76V7.62L23.2094 11.22V12.64H27.3294V11.48H28.9094V12.54C28.9094 12.94 28.7827 13.2867 28.5294 13.58C28.2894 13.86 27.8827 14 27.3094 14H23.2094C22.636 14 22.2227 13.86 21.9694 13.58C21.7294 13.2867 21.6094 12.94 21.6094 12.54V5.96ZM23.2094 9.6L27.3094 7.02V5.36H23.2094V9.6ZM38.6263 14H33.6463C32.6863 14 32.1329 13.64 31.9863 12.92C31.9329 12.7067 31.9063 12.48 31.9063 12.24V5.76C31.9063 5.2 32.0596 4.76667 32.3663 4.46C32.6863 4.14 33.1663 3.98 33.8063 3.98H38.6263V6.52H37.2663V5.36H33.5063V12.64H37.2663V11.48H38.6263V14ZM44.2619 0.359999V4H45.8819V5.44H44.2619V12.64H46.1619V14H44.4819C43.8819 14 43.4352 13.8467 43.1419 13.54C42.8485 13.22 42.7019 12.68 42.7019 11.92V5.44H41.2219V4H42.7019V0.359999H44.2619ZM51.6695 12.64H52.9695V14H48.7695V12.64H50.0295V5.36H48.7695V4H51.6695V12.64ZM50.8495 0.32C51.1295 0.32 51.3629 0.426666 51.5495 0.639999C51.7495 0.839999 51.8495 1.08667 51.8495 1.38C51.8495 1.66 51.7495 1.9 51.5495 2.1C51.3629 2.28667 51.1229 2.38 50.8295 2.38C50.5495 2.38 50.3095 2.28667 50.1095 2.1C49.9229 1.9 49.8295 1.66 49.8295 1.38C49.8295 1.08667 49.9295 0.839999 50.1295 0.639999C50.3295 0.426666 50.5695 0.32 50.8495 0.32ZM57.4256 14C56.7456 14 56.2656 13.8467 55.9856 13.54C55.7056 13.22 55.5656 12.78 55.5656 12.22V5.78C55.5656 5.24667 55.6856 4.82 55.9256 4.5C56.179 4.16667 56.679 4 57.4256 4H61.1256C61.859 4 62.3523 4.16667 62.6056 4.5C62.859 4.82 62.9856 5.24667 62.9856 5.78V12.22C62.9856 12.78 62.8456 13.22 62.5656 13.54C62.2856 13.8467 61.8056 14 61.1256 14H57.4256ZM57.1856 12.64H61.3656V5.36H57.1856V12.64ZM72.5091 3.8C73.5491 3.8 74.0691 4.31333 74.0691 5.34V12.64H75.3491V14H71.4891V12.64H72.4491V5.2L68.4691 7.7V12.64H69.4491V14H65.5891V12.64H66.8491V5.34H65.5891V4H68.4691V6.08L71.7891 4C72.0024 3.86667 72.2424 3.8 72.5091 3.8ZM77.7563 1.32L86.7763 5.66V7.18L77.7563 11.54V10.16L85.3163 6.42L77.7563 2.7V1.32Z" fill="#65CCA9"/>
</svg>
