<svg width="261" height="42" viewBox="0 0 261 42" fill="none" xmlns="http://www.w3.org/2000/svg">
<path d="M0.6 21.54V16.98L27.66 3.96V8.1L4.98 19.26L27.66 30.48V34.62L0.6 21.54ZM55.8009 36.72C55.8009 40.24 54.0809 42 50.6409 42H36.1209V32.94H40.2009V37.92H51.0009V32.94L41.1609 26.76C40.1609 26.12 39.3009 25.6 38.5809 25.2C37.8609 24.8 37.2609 24.4 36.7809 24C35.9009 23.2 35.4609 22.12 35.4609 20.76V17.34C35.4609 15.66 35.7409 14.5 36.3009 13.86C37.3809 12.62 38.9809 12 41.1009 12H55.0809V21H51.0009V16.08H40.2009V21.12L50.4009 27.48C51.2409 28 51.9809 28.46 52.6209 28.86C53.3009 29.22 53.8609 29.6 54.3009 30C55.3009 30.84 55.8009 31.84 55.8009 33V36.72ZM64.8281 17.88C64.8281 13.92 66.8881 11.94 71.0081 11.94H81.1481C83.1081 11.94 84.5281 12.32 85.4081 13.08C86.2881 13.84 86.7281 15.24 86.7281 17.28V22.86L69.6281 33.66V37.92H81.9881V34.44H86.7281V37.62C86.7281 38.82 86.3481 39.86 85.5881 40.74C84.8681 41.58 83.6481 42 81.9281 42H69.6281C67.9081 42 66.6681 41.58 65.9081 40.74C65.1881 39.86 64.8281 38.82 64.8281 37.62V17.88ZM69.6281 28.8L81.9281 21.06V16.08H69.6281V28.8ZM115.879 42H100.939C98.0588 42 96.3988 40.92 95.9588 38.76C95.7988 38.12 95.7188 37.44 95.7188 36.72V17.28C95.7188 15.6 96.1788 14.3 97.0988 13.38C98.0588 12.42 99.4988 11.94 101.419 11.94H115.879V19.56H111.799V16.08H100.519V37.92H111.799V34.44H115.879V42ZM132.786 1.08V12H137.646V16.32H132.786V37.92H138.486V42H133.446C131.646 42 130.306 41.54 129.426 40.62C128.546 39.66 128.106 38.04 128.106 35.76V16.32H123.666V12H128.106V1.08H132.786ZM155.009 37.92H158.909V42H146.309V37.92H150.089V16.08H146.309V12H155.009V37.92ZM152.549 0.959999C153.389 0.959999 154.089 1.28 154.649 1.92C155.249 2.52 155.549 3.26 155.549 4.14C155.549 4.98 155.249 5.7 154.649 6.3C154.089 6.86 153.369 7.14 152.489 7.14C151.649 7.14 150.929 6.86 150.329 6.3C149.769 5.7 149.489 4.98 149.489 4.14C149.489 3.26 149.789 2.52 150.389 1.92C150.989 1.28 151.709 0.959999 152.549 0.959999ZM172.277 42C170.237 42 168.797 41.54 167.957 40.62C167.117 39.66 166.697 38.34 166.697 36.66V17.34C166.697 15.74 167.057 14.46 167.777 13.5C168.537 12.5 170.037 12 172.277 12H183.377C185.577 12 187.057 12.5 187.817 13.5C188.577 14.46 188.957 15.74 188.957 17.34V36.66C188.957 38.34 188.537 39.66 187.697 40.62C186.857 41.54 185.417 42 183.377 42H172.277ZM171.557 37.92H184.097V16.08H171.557V37.92ZM217.527 11.4C220.647 11.4 222.207 12.94 222.207 16.02V37.92H226.047V42H214.467V37.92H217.347V15.6L205.407 23.1V37.92H208.347V42H196.767V37.92H200.547V16.02H196.767V12H205.407V18.24L215.367 12C216.007 11.6 216.727 11.4 217.527 11.4ZM233.269 3.96L260.329 16.98V21.54L233.269 34.62V30.48L255.949 19.26L233.269 8.1V3.96Z" fill="#65CCA9"/>
</svg>
